<svg width="40" height="40" viewBox="0 0 40 40" fill="none" xmlns="http://www.w3.org/2000/svg">
<g clip-path="url(#clip0_413_2797)">
<path d="M6.24022 15.743C4.89221 17.1106 3.58207 18.5309 2.18105 19.8459L2.12804 20.0939L19.9248 37.8433L37.7594 20.0263L27.4751 9.72381L16.1004 20.9881L15.1916 20.0939L27.407 7.67233L39.8723 19.9436L19.9248 39.8422L0 19.9511L19.8793 0.0976562L20.8866 1.09709L20.7881 1.29999C15.9565 6.13185 11.034 10.8811 6.24022 15.743Z" fill="#D7A96D"/>
<path d="M24.7566 27.5408L19.925 32.3651L18.8723 31.3206L30.4894 19.7031C30.5803 19.5904 30.497 19.5378 30.4364 19.4551C29.8684 18.636 28.5128 17.7493 27.8616 16.9152L16.1081 28.5778L7.5127 19.9511L23.6585 3.84736C23.7645 3.83233 24.7717 4.71905 24.6581 4.93697L9.63316 20.0337L16.1081 26.4812L27.8691 14.8186L32.6326 19.643L24.7566 27.5483V27.5408Z" fill="#D7A96D"/>
</g>
<defs>
<clipPath id="clip0_413_2797">
<rect width="40" height="40" fill="white"/>
</clipPath>
</defs>
</svg>
